<?xml version="1.0" encoding="utf-8"?>
<!-- Generator: Adobe Illustrator 18.0.0, SVG Export Plug-In . SVG Version: 6.00 Build 0)  -->
<!DOCTYPE svg PUBLIC "-//W3C//DTD SVG 1.1//EN" "http://www.w3.org/Graphics/SVG/1.1/DTD/svg11.dtd">
<svg version="1.1" id="Layer_1" xmlns="http://www.w3.org/2000/svg" xmlns:xlink="http://www.w3.org/1999/xlink" x="0px" y="0px"
	 viewBox="0 0 275 275" enable-background="new 0 0 275 275" xml:space="preserve">
<g>
	<g id="pillow">
		<path fill="#12B3A8" d="M10,142.4c0,0,7.7-0.1,21.3-0.4c6.8-0.2,15.1-0.3,24.6-0.8c9.5-0.4,20.4-0.8,32.2-1.6
			c23.7-1.5,51.7-3.4,81.9-5.6c3.8-0.3,7.6-0.6,11.5-0.9c1.9-0.2,3.9-0.3,5.8-0.5l0.7-0.1l0.9,0c0.3,0,0.5,0,0.8,0l1.1,0.1
			c1.5,0.1,2.9,0.5,4.5,1c6.3,2,13.7,6.6,19.5,12.3c1.5,1.4,2.8,2.9,3.9,4.4l2.8,3.6c1.9,2.4,3.7,4.8,5.6,7.2
			c3.7,4.8,7.4,9.7,11.2,14.6c3.7,4.9,7.4,9.8,11.1,14.7l2.8,3.7l0.7,0.9l0.3,0.5l0.3,0.5l0.2,0.2c0.5,0.7,0.8,1.1,1.4,2.1l0.8,1.3
			c0.2,0.4,0.4,0.8,0.6,1.2c0.4,0.8,0.7,1.6,1,2.4c0.3,0.8,0.4,1.5,0.6,2.3c0.1,0.7,0.3,1.5,0.3,2.2c0.1,2.8-0.6,5.3-2.3,7.2
			c-1.7,1.9-4.2,3.1-7.2,3.5c-9.6,1.3-19.2,2.5-28.7,3.8c-4.7,0.6-9.5,1.2-14.2,1.8c-4.7,0.5-9.4,1.1-14.1,1.6
			c-9.3,1-18.6,2.1-27.6,3c-9.1,0.9-18,1.8-26.8,2.6c-34.8,3.1-66.8,5.7-94,7.7c-1.7,0.1-3.3,0.3-5.1,0.3c-0.8,0-1.8-0.1-2.7-0.3
			c-0.5-0.1-0.9-0.2-1.4-0.4l-1.4-0.5c-3.6-1.7-7-4.7-9.6-8.6c-1.3-1.9-2.4-4-3.2-6.1l-0.6-1.6l-0.5-1.6c-0.3-1.1-0.6-2.1-0.8-3.1
			c-1.1-4.1-2.1-8-3.1-11.8c-4.1-15.2-7.8-28.5-10.8-39.4c-0.8-2.7-1.6-5.3-1.9-7.8c-0.4-2.4-0.4-4.6-0.2-6.4
			c0.4-3.6,1.6-5.9,2.9-7.2c1.3-1.3,2.6-1.7,3.4-1.9C9.5,142.5,10,142.4,10,142.4z M10.2,143.1c0,0-0.5,0-1.3,0.2
			c-0.9,0.2-2.1,0.6-3.3,1.9c-1.2,1.3-2.4,3.5-2.8,7c-0.2,1.8-0.2,3.8,0.2,6.2c0.3,2.3,1.1,4.9,1.9,7.6c3.1,10.9,6.8,24.2,11,39.4
			c1.1,3.8,2.1,7.7,3.2,11.8c0.6,2,1.1,4.1,1.9,6.1c0.8,2,1.8,3.9,3,5.7c2.4,3.5,5.6,6.4,9,7.8c1.7,0.7,3.4,1,5,1
			c1.6-0.1,3.3-0.3,4.9-0.4c53.9-5.6,127.3-14.1,202.5-23.7c2.3-0.3,4.2-1.2,5.4-2.6c1.3-1.4,1.8-3.3,1.8-5.4
			c-0.1-2.1-0.9-4.6-2.3-7c-0.3-0.6-0.8-1.2-1.2-1.8c-0.4-0.6-0.9-1.2-1.3-1.8l-2.7-3.7c-7.3-9.9-14.6-19.7-21.8-29.4
			c-1.8-2.4-3.6-4.9-5.4-7.3l-2.7-3.6c-0.9-1.2-1.9-2.3-3-3.4c-4.4-4.5-10.2-8.2-15.2-9.7c-2.5-0.8-4.7-1-6.6-0.9
			c-2,0.1-4,0.2-6,0.3c-4,0.2-7.9,0.4-11.8,0.7c-30.9,1.6-59.4,2.8-83.6,3.6C41.3,142.6,10.2,143.1,10.2,143.1z"/>
	</g>
	<path id="foot_1_" fill="#4D4D4D" d="M58.9,193.7c0.7,1.8,3.6,8.5,11,11.6c4.2,1.8,11.7,3.2,14.2,0c2.8-3.5-0.4-12-8.6-20.6"/>
	<path id="foot" fill="#4D4D4D" d="M161.2,187.7c0,0-7.5,10.1-13,14.6c-6,4.9-9.2,3.2-10.1,3.1c-9.7-0.8,8-24.2,8-24.2"/>
	<path id="body" fill="#4D4D4D" d="M39.6,204c-7.2-2.9,8.4-19.1,11.1-39.2c4.3-31.6,6.4-71.6,34.2-86.1
		c23.8-30.1,124.3,4.1,129.4,5.8c35.9,12.1,22.1,46.1,35.9,58l15.8,13.6c-4.1,5-15.3,17.4-33.9,21.8c-4.7,1.1-15.5,4.1-24.5,3.7
		c-24.1,0.6-39.3-18-32.8-10c-2.3,10.8-5.8,13.9-0.2,18.8c5.7,5.1,12.6,9.5,4.5,13.5c-1.2,0.4-6.4,0.5-7.9-0.3
		c-1.9-1.1-4.8-3.2-7.8-5.5c-7.6-5.7-17.4-7.5-26.5-4.8c-21.2,6.2-28.7,6.3-55.2,1.2c-9.9-1.9-25.4,2-31.9,9.7
		C49.9,204.3,44.5,205.9,39.6,204L39.6,204z"/>
	<ellipse id="nose" cx="265.8" cy="153" rx="6.8" ry="6.8"/>
	<path id="eye" d="M227.1,146.8c0,0,9.9-5.4,2.2-16c0,0-4.2-6.2-13.8-2.4c-9.3,3.8-12.6-7-12.6-7s3.9,19.5,13.2,24.9
		C216,146.3,222.4,150,227.1,146.8L227.1,146.8z"/>
	<path id="eye_reflection" fill="#FFFFFF" d="M227.1,136.2c-0.9,0.5-2.1-0.1-2.8-1.4c-0.7-1.2-0.6-2.6,0.3-3.1
		c0.9-0.5,2.1,0.1,2.8,1.4S228,135.7,227.1,136.2z"/>
	<path id="quills" fill="#FFFFFF" stroke="#003399" stroke-width="6.9451" stroke-miterlimit="10" d="M131.1,184.8
		c10.3,1.4,2.9,5.4,2.9,5.4c13.2,0.5,11.1-8.6,11.1-8.6c16.2,13.7,37.8-5.4,29.2,1c-8.5,6.4-29.2-11-17.1-14.6s19.2,11.2,18.8,3.4
		c-4.4-16.7-19.5-28.9-19.5-28.9c11.1,3.7,15.5-2,15.5-2c-12.1,5.4-10.1-23.8-1.5-17s12.4,1,12.4,1c-11.4-1.7-17.1-16.1-7.2-18.8
		c9.9-2.7,15.7,3.9,15.7,3.9c2-9.9-3.6-19.3-3.6-19.3c10.8,10.4,46.3,11.8,36,10.4c-10.3-1.4-11.6-10-11.6-10s11.9-7.4,20-2.4
		c0,0-8.4-13.9-21-12.5c0,0,3.4-16.8-12.8-23.6c0,0,2.2,16.9-6.4,16.9c0,0-0.6-14.2-17.7-13.7c0,0,2.2,9-0.9,10.8
		c-3.1,1.8-9.9-7.6-13.1-21.3c0,0-6.3,10-4,15.5c0,0-9-9.1-15.3-7.7c0,0,8.1,5,4.5,11.4s-21.1-9.1-18.4-15.9c0,0-16.2,6-12.6,13.3
		c0,0-23-11.9-38.8-5.1c0,0,11.7-1.8,13.5,7.7S79.1,67.6,70,66.3c-6-0.8-22.4,0-4.2,9.3c9.7,4.9,13.5,4.5,13.5,4.5
		s-18.4,12.7-35.1-3.6c0,0,4.2,15.3,9.9,17.7c0,0-13.5-8.2-24.3,0c0,0,13.8,2.2,15.3,7.3c2.8,9.3-18.4,2.7-18.4,2.7
		s0.4,11.4,14.3,14.1c13.9,2.7-20.3,8-24.7,5c0,0,18.9,11.7,19.8,19.9c0.9,8.3-17.1,13.3-27,6.9c0,0,3.6,15.9,22.9,10.9
		c0,0-2.2,10.4-15.7,6.8c0,0,3.6,10,16.2,6.4c0,0,19.4,8.9,9.1,13.9c0,0,7.2,3.6,18.9-7.7c0,0,1.8,8.7-4.9,10c0,0,0,5.9,20.7-10
		c0,0,10.3,3.5,7.2,11.1c0,0,11.7-3.4,12.1-12.4c0,0,8.5,18.2,12.6,14.1C108.2,193,120.7,183.4,131.1,184.8L131.1,184.8z"/>
	<path id="smile" fill="none" stroke="#FFFFFF" stroke-width="3.2514" stroke-miterlimit="10" d="M200.7,159.8
		c3.5,27.4,28.5,20.5,34.7,19.1"/>
</g>
</svg>
