<?xml version="1.0" encoding="utf-8"?>
<!-- Generator: Adobe Illustrator 18.0.0, SVG Export Plug-In . SVG Version: 6.00 Build 0)  -->
<!DOCTYPE svg PUBLIC "-//W3C//DTD SVG 1.1//EN" "http://www.w3.org/Graphics/SVG/1.1/DTD/svg11.dtd">
<svg version="1.1" id="Layer_1" xmlns="http://www.w3.org/2000/svg" xmlns:xlink="http://www.w3.org/1999/xlink" x="0px" y="0px"
	 viewBox="295 92 275 76" enable-background="new 295 92 275 76" xml:space="preserve">
<g display="none">
	<path display="inline" fill="#FEFEFE" d="M-190.4,258.5c-34.3,0-68.6,0-103,0c-0.5,0-0.6-0.1-0.6-0.6c0-18.3,0-36.6,0-54.9
		c0-0.5,0.1-0.6,0.6-0.6c34.1,0,68.3,0,102.4,0c0.5,0,0.6,0.1,0.6,0.6C-190.4,221.5-190.4,240-190.4,258.5z"/>
	<path display="inline" fill="#CCCCCC" d="M-194.9,242c-0.2,1.1-0.5,2.2-1.1,3.2c-0.9,1.4-2,2.7-3.4,3.7c-2,1.5-4.3,2.4-6.7,2.8
		c-2.7,0.4-5.4,0.4-8-0.5c-0.2-0.1-0.5-0.2-0.7-0.2c-0.6-0.2-1.2,0-1.7,0.3c-1.6,1.1-3.3,1.9-5.1,2.4c-1.6,0.5-3.3,0.9-5,1.1
		c-1.7,0.3-3.4,0.1-5.1,0.2c-3.8,0.1-7.5-0.8-11-2.4c-0.8-0.3-1.4-0.1-2,0.3c-2,1.5-4.2,2.2-6.6,2.7c-1.8,0.4-3.7,0.5-5.5,0.3
		c-2-0.2-4-0.7-5.9-1.5c-2.2-1-4.1-2.2-5.6-4.1c-0.4-0.4-0.8-0.4-1.2-0.2c-1.1,0.3-2.3,0.6-3.5,0.8c-1.8,0.3-3.5,0.1-5.2-0.2
		c-2.9-0.6-5.4-2.1-7.6-4c-1.2-1.1-2.1-2.5-2.8-4.1c-0.9-2-1.2-4.1-1.1-6.2c0.1-1.6,0.6-3.2,1.4-4.6c0.2,0.2,0.2,0.4,0.2,0.7
		c-0.1,0.7-0.1,1.3,0,2c0,0.2-0.1,0.5,0,0.7c0,0.2,0.2,0.4,0.2,0.6c-0.1,0.1-0.1,0.3,0.1,0.4c0.4,1.1,0.8,2.1,1.3,3.2
		c0,0.6,0.3,1,0.7,1.3c0.1,0.1,0.3,0.2,0.3,0.3c-0.1,0.3,0.1,0.4,0.3,0.5c0.5,0.5,1,0.9,1.3,1.5c0.3,0.4,0.7,0.7,1.2,0.9
		c0.9,0.4,1.7,0.9,2.6,1.4c0.4,0.3,0.9,0.6,1.5,0.5c0.9,0.2,1.9,0.5,2.8,0.6c1.6,0.3,3.3,0.3,4.9,0c0.9-0.2,1.7-0.3,2.5-0.6
		c0.4-0.1,0.8-0.3,1.2-0.1c0.2,0.5,0.6,0.8,1,1.1c0.3,0.2,0.6,0.5,0.8,0.8c0.1,0.3,0.4,0.4,0.6,0.4c0.3,0.1,0.5,0.2,0.7,0.4
		c2.3,1.4,4.7,2.5,7.4,2.9c0.3,0,0.5,0.1,0.7,0.2c0.1,0.3,0.4,0,0.6,0.1c0.3,0,0.5,0,0.8-0.1c0.9,0,1.8,0.1,2.6-0.1
		c0.2,0,0.4,0,0.7,0c0.2,0.1,0.3,0.2,0.6,0.2c-0.1-0.1-0.3,0-0.4-0.1c0-0.1,0.1-0.2,0.3-0.2c1.4-0.1,2.7-0.6,4-0.9
		c0.5,0,1-0.2,1.4-0.6c1-0.6,2.1-1.2,3.1-1.8c0.4-0.2,0.8-0.2,1.2,0c2.3,1.1,4.8,1.8,7.4,2.2c0.3,0,0.6,0,0.8,0.3
		c0,0.1,0,0.2-0.1,0.1h0.1c0.2-0.1,0.3-0.1,0.5-0.2c0.2,0,0.5-0.1,0.7,0.2c0,0.1-0.1,0.1-0.2,0.1h0.1c0.2-0.1,0.5-0.1,0.8-0.1
		c1.1,0,2.3,0,3.4,0c0.2,0,0.5,0,0.7-0.1c0.4-0.2,0.8-0.2,1.2-0.1c0.2,0.1,0.5,0.1,0.7,0c0.4-0.2,0.8-0.2,1.2-0.2
		c1.4-0.2,2.8-0.7,4.1-1c0.3,0.1,0.6-0.1,0.9-0.1c0-0.1-0.1-0.1-0.1-0.2c0.5-0.4,1.1-0.6,1.7-0.8c0.9-0.4,1.7-1,2.6-1.4
		c0.5-0.3,1.1-0.1,1.7-0.1c1.1,0.2,2.2,0.5,3.2,0.7c0.1,0,0.3,0.1,0.3,0.2c0,0.1-0.1,0.1-0.1,0.1c0.2,0,0.5-0.1,0.8-0.1
		c0.8,0,1.6,0,2.4,0c0.2,0,0.4,0,0.5,0.1c0.1,0,0.1,0,0.2,0c-0.1,0-0.2,0-0.2-0.1c0-0.2,0.2-0.2,0.4-0.3c2.4-0.3,4.6-1.1,6.7-2.3
		c0.1,0,0.1,0,0.2-0.1c0.2,0,0.4,0,0.6-0.2c0.3-0.3,0.8-0.5,0.9-1c0.5-0.7,1.2-1.2,1.7-1.9C-195.2,242-195.1,241.9-194.9,242z"/>
	<path display="inline" fill="#E6E6E6" d="M-280.2,245.4c-0.5-0.5-1.1-0.6-1.6-0.9c-0.3-0.2-0.6-0.4-0.9-0.5c-0.4-0.3-0.8-0.6-1.2-1
		c-0.4-0.6-0.9-1-1.3-1.6c-0.2-0.1-0.3-0.3-0.3-0.5c-0.1-0.1-0.2-0.2-0.3-0.2c-0.2-0.5-0.7-0.8-0.7-1.3c-0.6-1-1-2.2-1.3-3.3
		c-0.1-0.1-0.1-0.2,0-0.4c0-0.2-0.3-0.3-0.2-0.6c-0.1-0.2-0.1-0.4,0-0.6c-0.3-0.9,0-1.9,0-2.8c0.5-0.6,0.5-1.4,0.6-2.2
		c0.1-0.1,0.1-0.3,0.2-0.4c0.5-1.6,1.4-3.1,2.5-4.3c0.1-0.1,0.1-0.2,0.1-0.3c0.1-0.2,0.2-0.2,0.4-0.4c1.1-1.1,2.3-2.1,3.8-2.8
		c1.3-0.6,2.6-1.1,4.1-1.4c1.7-0.3,2.1-0.8,2.3-2.4c0.1-0.1,0.1-0.3,0.2-0.4c0.5-1.6,1.4-3.1,2.3-4.5c0.6-0.9,1.3-1.6,2-2.4
		c0.9-0.9,1.9-1.7,2.9-2.4c1.5-1,3.2-1.8,4.9-2.4c1.6-0.6,3.3-0.9,5-1.2c1.6-0.4,3.2-0.3,4.8-0.1c1.8,0.2,3.6,0.5,5.3,1.1
		c1.2,0.4,2.4,0.9,3.6,1.5c1.3,0.7,2.5,1.5,3.6,2.4c0.7,0.6,1.3,1.3,2,1.8c0.1,0.2,0.2,0.2,0.4,0.4c0.6,0.8,1.1,1.6,1.7,2.4
		c0,0.1,0.1,0.1,0.2,0.2c0.7,1.2,0.7,1.2,2.1,0.8c2.4-0.6,4.8-0.8,7.2-0.6c2.1,0.1,4.1,0.6,6,1.4c2,0.8,3.9,1.9,5.5,3.4
		c1.1,1,2.1,2.1,2.8,3.4c0.4,0.8,0.8,1.5,1.1,2.3c0.1,0.5,0.5,0.6,0.9,0.5c2.5-0.4,4.9-0.2,7.3,0.5c1.4,0.4,2.8,1.1,4.1,1.9
		c1.1,0.7,2,1.5,2.8,2.4c0.6,0.7,1,1.4,1.5,2.2c0.5,0.9,0.8,1.9,1,2.8c0.3,1,0.4,2.2-0.2,3.3c-0.3,0.6-0.3,1.3-0.7,1.9
		c-0.4,0.6-0.6,1.2-0.9,1.8c-0.5,0.2-0.6,0.7-1,1s-0.7,0.7-1,1c-0.2,0.4-0.7,0.5-0.9,0.9c-0.2,0.1-0.3,0.3-0.5,0.2
		c-1.9,1.2-4,1.9-6.2,2.4c-0.4,0.1-0.8-0.1-1.2,0.2c-0.1,0.1-0.3,0-0.4,0.1c-0.9,0-1.7,0-2.6,0c-0.2,0-0.4,0.1-0.6-0.1
		c-0.7-0.2-1.5-0.3-2.2-0.5c-0.5-0.1-1-0.2-1.4-0.4c-0.1,0-0.1,0-0.2,0c-0.5-0.3-1-0.2-1.4,0.1c-1.4,0.9-2.9,1.6-4.4,2.2
		c-0.2,0.1-0.4,0.3-0.7,0.2c-1.5,0.5-2.9,0.9-4.5,1.2c-0.3,0.1-0.7-0.1-1,0.2c-0.2,0.1-0.4,0.1-0.6,0c-0.4,0-0.8-0.1-1.2,0.1
		c-1.1,0.1-2.3,0-3.4,0.1c-0.3,0-0.6,0-0.9,0c-0.2,0-0.5,0.1-0.7-0.1c-0.2-0.2-0.5-0.1-0.7-0.1c-0.1,0.1-0.2,0.1-0.4,0
		c-1.2-0.2-2.4-0.5-3.6-0.7c-1.6-0.4-3.1-0.9-4.6-1.6c-0.5-0.2-0.9-0.3-1.4,0.1c-0.8,0.6-1.6,1.2-2.6,1.5c-0.1,0-0.1,0.1-0.2,0.2
		c-0.4,0.2-0.8,0.4-1.3,0.5c-1.4,0.4-2.7,0.9-4.2,1c-0.1,0-0.1,0.1-0.2,0.1c0,0-0.1,0.1-0.1,0c-0.9,0-1.9,0.2-2.8,0.1
		c-0.2,0-0.5,0-0.7-0.1c-0.2,0.1-0.5,0-0.7,0s-0.3,0.1-0.5-0.1c-0.6-0.3-1.2-0.3-1.9-0.4c-2.4-0.5-4.5-1.5-6.6-2.8
		c-0.2-0.1-0.3-0.2-0.5-0.2c-0.2-0.1-0.4-0.3-0.6-0.5c-0.1-0.4-0.5-0.6-0.7-0.8c-0.3-0.3-0.6-0.6-0.8-1c-0.4-0.3-0.8,0-1.2,0.1
		c-1.7,0.6-3.5,0.9-5.4,0.9c-1.7,0-3.4-0.4-5.1-1C-279.3,245.9-279.8,245.6-280.2,245.4z"/>
	<path display="inline" fill="#DDF1FB" d="M-287.4,229.2c0,0.2,0,0.4-0.2,0.4C-287.6,229.4-287.6,229.2-287.4,229.2z"/>
	<path display="inline" fill="#DEF2FB" d="M-284.4,224.2c0,0.2-0.2,0.3-0.4,0.4C-284.7,224.3-284.6,224.2-284.4,224.2z"/>
	<path display="inline" fill="#DEF2FB" d="M-273.9,217.3c0,0.2,0,0.4-0.2,0.4C-274.2,217.5-274.2,217.3-273.9,217.3z"/>
	<path display="inline" fill="#E0F2FB" d="M-237.1,211.5c-0.2,0-0.4-0.1-0.4-0.4C-237.3,211.2-237.1,211.2-237.1,211.5z"/>
	<path display="inline" fill="#DCEFF9" d="M-231.4,250.9c1.5,0,2.9,0,4.4,0c-0.2,0.2-0.4,0.1-0.6,0.1c-1.2,0-2.5,0-3.7,0
		C-231.4,251-231.5,250.9-231.4,250.9L-231.4,250.9z"/>
	<path display="inline" fill="#DCEFF9" d="M-208.9,247.7c0.9,0,1.8,0,2.7,0c0,0,0.1,0.1,0,0.1l0,0c-0.9,0-1.8,0-2.7,0
		C-208.9,247.8-208.9,247.8-208.9,247.7L-208.9,247.7z"/>
	<path display="inline" fill="#D5ECF9" d="M-286.7,239.3c0.2,0.5,0.7,0.8,0.7,1.3C-286.3,240.3-286.8,240-286.7,239.3z"/>
	<path display="inline" fill="#D8EDF9" d="M-284,243c0.5,0.2,0.9,0.6,1.2,1C-283.3,243.8-283.7,243.4-284,243z"/>
	<path display="inline" fill="#D7EDF9" d="M-214.7,247c0.5-0.5,1-0.4,1.6-0.1l-0.1,0.1C-213.7,246.7-214.2,246.8-214.7,247z"/>
	<path display="inline" fill="#D5ECF9" d="M-267.1,245.9c0.3,0.3,0.7,0.6,0.8,1c-0.5-0.1-0.6-0.7-1-0.9l0,0
		C-267.2,245.9-267.2,245.9-267.1,245.9z"/>
	<path display="inline" fill="#D7EDF9" d="M-280.2,245.4c0.5,0.1,0.9,0.4,1.5,0.5C-279.4,246-279.8,245.7-280.2,245.4z"/>
	<path display="inline" fill="#D8EDF9" d="M-198,244.9c0.2-0.4,0.7-0.6,1-0.9c-0.1,0.5-0.6,0.7-1,1C-198,245-198,245-198,244.9
		L-198,244.9z"/>
	<path display="inline" fill="#D7EDF9" d="M-246.8,250.6c0.4-0.2,0.9-0.3,1.3-0.5C-245.8,250.4-246.3,250.7-246.8,250.6z"/>
	<path display="inline" fill="#D6EDF9" d="M-219.8,249.4c0.2-0.1,0.5-0.2,0.7-0.2h0.1C-219.2,249.3-219.4,249.6-219.8,249.4z"/>
	<path display="inline" fill="#E4E7E8" d="M-208.9,247.7v0.1c-0.3,0-0.6,0-1,0c0.1-0.2,0.3-0.1,0.4-0.1
		C-209.3,247.7-209.1,247.7-208.9,247.7z"/>
	<path display="inline" fill="#D8EEF9" d="M-265.6,247.7c0.3,0,0.5,0.3,0.6,0.5C-265.2,248.1-265.5,248-265.6,247.7z"/>
	<path display="inline" fill="#D7EDF9" d="M-285.6,240.9c0.1,0.2,0.2,0.3,0.3,0.5C-285.7,241.3-285.8,241.1-285.6,240.9z"/>
	<path display="inline" fill="#E5E7E7" d="M-231.4,250.9v0.1c-0.3,0-0.6,0-1,0c0.1-0.2,0.3-0.1,0.4-0.1
		C-231.8,250.9-231.6,250.9-231.4,250.9z"/>
	<path display="inline" fill="#E8EAEC" d="M-206.2,247.8v-0.1c0.1,0,0.2,0,0.4,0c0.1,0,0.2,0,0.3,0v0.1
		C-205.7,247.8-206,247.8-206.2,247.8z"/>
	<path display="inline" fill="#D7DDE1" d="M-198,244.9v0.1c-0.1,0.1-0.3,0.3-0.5,0.1C-198.3,245.1-198.2,244.9-198,244.9z"/>
	<path display="inline" fill="#DAEEF9" d="M-288,235.7c0,0.1,0,0.2,0,0.4c-0.1,0-0.2,0-0.2-0.2S-288.1,235.7-288,235.7z"/>
	<path display="inline" fill="#D3D5D7" d="M-255.5,251.7c0.2,0,0.5,0,0.7,0c-0.2,0.2-0.5,0.1-0.7,0.1
		C-255.6,251.8-255.6,251.8-255.5,251.7L-255.5,251.7z"/>
	<path display="inline" fill="#DBEFF9" d="M-288.2,234.5c0,0.2,0,0.4,0,0.6C-288.4,234.9-288.4,234.7-288.2,234.5z"/>
	<path display="inline" fill="#E8EAEA" d="M-233.1,250.7c0.1,0,0.2,0,0.4,0c-0.1,0.2-0.3,0.1-0.4,0.1c-0.1,0-0.1,0-0.1-0.1
		C-233.2,250.7-233.1,250.7-233.1,250.7z"/>
	<path display="inline" fill="#E4E5E6" d="M-225.8,250.7c0.2,0,0.4,0,0.6,0C-225.4,250.9-225.6,250.9-225.8,250.7z"/>
	<path display="inline" fill="#E5E5E5" d="M-255.5,251.7v0.1c-0.2-0.1-0.4,0.2-0.5-0.1C-255.8,251.7-255.7,251.7-255.5,251.7z"/>
	<path display="inline" fill="#E5E8EA" d="M-251.3,251.7h0.1c0.1,0,0.2,0,0.3,0C-251,251.8-251.1,251.9-251.3,251.7z"/>
	<path display="inline" fill="#FDFDFD" d="M-286.8,231.2c0.2-1.7,0.9-3.1,1.8-4.5c0.9-1.3,1.9-2.5,3.2-3.4c2.2-1.6,4.6-2.4,7.3-2.6
		c0.5,0,0.8-0.3,0.9-0.8c0.6-2.5,1.5-5,3.1-7.1c1.8-2.4,4.2-4.1,6.9-5.4c1.9-0.9,3.8-1.5,5.9-1.9c2.2-0.4,4.4-0.4,6.5-0.1
		c2.2,0.3,4.4,0.9,6.4,1.8c1.7,0.8,3.3,1.8,4.8,3.1c1.6,1.5,2.9,3.2,4,5c0.1,0.1,0.1,0.3,0.2,0.4c0.2,0.5,0.6,0.6,1,0.5
		c2.7-1,5.5-1.2,8.3-1c2.3,0.1,4.5,0.7,6.6,1.6c1.7,0.8,3.3,1.8,4.6,3.1c1.2,1.1,2.2,2.4,2.8,3.9c0.2,0.6,0.5,1.2,0.6,1.8
		c0.1,0.4,0.4,0.6,0.8,0.6c0.8-0.1,1.6-0.2,2.4-0.2c3.2-0.1,6.3,0.5,9.1,2.3c1.4,0.9,2.6,2,3.5,3.5c0.7,1.1,1.2,2.3,1.3,3.6
		c0.2,0.6,0.2,1.2,0,1.8c-0.2,2-1.1,3.7-2.4,5.2c-1.4,1.5-3,2.6-5,3.3c-1.3,0.5-2.7,0.7-4.2,0.9c-2,0.2-3.9,0-5.9-0.5
		c-0.4-0.1-0.9-0.2-1.3-0.5c-0.7-0.4-1.4-0.3-2,0.3c-1.8,1.4-3.9,2.2-6,2.9c-3.2,0.9-6.4,1.2-9.7,1.1c-3.6-0.2-7.1-1-10.3-2.7
		c-0.9-0.5-1.6,0-2.2,0.5c-2,1.5-4.3,2.3-6.7,2.8c-3,0.5-6,0.4-8.9-0.6c-2-0.7-3.8-1.6-5.4-3c-0.7-0.6-1.3-1.3-1.8-2
		c-0.3-0.4-0.7-0.5-1.2-0.3c-2.3,1-4.8,1.4-7.3,1.1c-2.5-0.3-4.9-1.1-7-2.6c-1.7-1.2-3-2.7-4-4.5c-0.6-1.1-1.1-2.2-1-3.5
		c-0.2-0.2,0-0.5-0.2-0.6c0-0.9,0-1.9,0-2.8C-286.9,231.6-286.9,231.4-286.8,231.2z"/>
	<path display="inline" fill="#C0E6F8" d="M-194.5,237.3c0-0.6,0-1.2,0-1.8c0.2,0,0.3,0.2,0.2,0.3
		C-194.4,236.3-194.1,236.9-194.5,237.3z"/>
	<path display="inline" fill="#EBF5FB" d="M-287,234.5c0.4,0.1,0.2,0.4,0.2,0.6C-287.2,235-287,234.7-287,234.5z"/>
	<path display="inline" fill="#CCEAF8" d="M-286.8,231.2c0,0.2,0.1,0.4-0.2,0.5C-287,231.5-287.1,231.3-286.8,231.2z"/>
</g>
<g id="Favicon">
	<g>
		<path fill="#335CAD" d="M-70.3,162.2l-25.8,0.2c-4.3,0-8.6,0-12.9,0.1l-12.9,0.2l-6.5,0.1h-3.2c-1.2,0-2.3-0.1-3.6-0.6
			c-0.6-0.2-1.2-0.6-1.7-1.1s-0.8-1.2-0.9-1.9c-0.1-0.3,0-0.6,0-0.9c0-0.2,0.1-0.3,0.1-0.4v-0.2v-0.1v-0.1c0-0.1,0,0.1,0,0
			c0-0.5,0.1-1,0.1-1.4v-1.3l-0.1-1.5c-0.1-1-0.1-1.9-0.2-2.9c-0.3-3.9-0.8-7.8-1.3-11.8l-1.5-11.8c-0.5-3.9-1-7.9-1.6-11.8
			c-0.3-2-0.6-3.9-1-5.9c-0.2-1-0.4-2-0.6-2.9l-0.2-0.7l-0.1-0.3l-0.1-0.4l-0.2-0.7l-0.2-0.9c-0.1-0.6-0.2-1.2-0.1-1.9
			c0-0.2,0.1-0.4,0.1-0.6s0.1-0.4,0.3-0.6c0.1-0.2,0.3-0.4,0.5-0.6s0.4-0.3,0.7-0.4c1-0.4,1.8-0.2,2.4-0.2c0.6,0.1,1.1,0.2,1.6,0.3
			c0.2,0,0.4,0.1,0.6,0.1l0.8,0.1l1.6,0.2l3.1,0.3l12.6,1.1c4.2,0.4,8.4,0.7,12.6,1l12.5,0.9c4.2,0.3,8.4,0.5,12.4,0.5
			c1,0,2,0,2.9-0.2c0.1,0,0.2,0,0.2-0.1h0.1l0,0l0.1-0.1c0.2-0.1,0.4-0.2,0.7-0.3c0.6-0.2,1.2-0.4,2.1-0.2c0.8,0.1,1.6,0.6,2.1,1.1
			s0.8,1,1.1,1.6c0.5,1,0.7,2,0.9,3l-0.2-0.5c0.2,0.2,0.4,0.5,0.4,0.7l0.2,0.5c0.1,0.3,0.2,0.6,0.3,0.9c0.1,0.6,0.3,1.2,0.4,1.8
			c0.2,1.2,0.4,2.4,0.6,3.6c0.3,2.4,0.6,4.7,0.9,7.1l1.5,14.2l1.6,14.2l0.5,3.5c0.2,1.2,0.3,2.4,0.6,3.5c0.1,0.3,0.2,0.6,0.3,0.9
			s0.1,0.6,0.1,0.9c-0.1,0.6-0.4,1.1-0.9,1.5C-67.5,161.9-68.9,162.2-70.3,162.2z M-70.3,162c1.3,0,2.7-0.3,3.6-1
			c0.5-0.4,0.8-0.9,0.9-1.4c0.1-0.6-0.1-1.1-0.4-1.7c-0.3-1.2-0.5-2.4-0.7-3.6l-0.5-3.6l-1.7-14.2c-0.6-4.7-1.2-9.5-1.8-14.2
			c-0.3-2.4-0.7-4.7-1.1-7.1c-0.2-1.2-0.4-2.4-0.7-3.5c-0.1-0.6-0.3-1.2-0.4-1.8c-0.2-0.6-0.3-1.2-0.7-1.7l0,0l0,0
			c-0.1-0.9-0.4-1.8-0.8-2.7c-0.2-0.4-0.5-0.9-0.9-1.2c-0.4-0.4-0.8-0.6-1.3-0.7s-1,0-1.4,0.2s-0.8,0.4-1.4,0.5
			c-1,0.2-2,0.2-3.1,0.3c-4.1,0.1-8.3-0.1-12.5-0.3c-8.4-0.4-16.8-1-25.1-1.6l-12.6-1c-2.1-0.2-4.2-0.3-6.3-0.6
			c-1-0.1-2.2-0.5-3-0.2c-0.4,0.2-0.6,0.5-0.7,1c0,0.5,0,0.9,0.1,1.4c1,3.9,1.6,7.9,2.2,11.8s1.1,7.9,1.5,11.8
			c0.9,7.9,1.8,15.7,2.3,23.6c0.1,1,0.1,2,0.2,2.9l0.1,1.5v1.5c0,0.5-0.1,1-0.1,1.5c-0.1,0.5-0.2,0.9-0.2,1.4s0.2,0.9,0.6,1.3
			c0.3,0.4,0.8,0.6,1.3,0.9c2,0.8,4.2,0.5,6.4,0.6h6.5L-70.3,162z"/>
	</g>
	<rect x="-131" y="118.3" fill="none" width="55.7" height="31"/>
	<text transform="matrix(1.0133 0 0 1 -130.9839 147.164)" fill="#003399" font-family="'ProximaSoft-Bold'" font-size="42.9217">PP</text>
</g>
<g id="Social_media_profile">
	<g>
		<path fill="#335CAD" d="M78.7,162.2l-25.8,0.2c-4.3,0-8.6,0-12.9,0.1l-12.9,0.2l-6.5,0.1h-3.2c-1.2,0-2.3-0.1-3.6-0.6
			c-0.6-0.2-1.2-0.6-1.7-1.1s-0.8-1.2-0.9-1.9c-0.1-0.3,0-0.6,0-0.9c0-0.2,0.1-0.3,0.1-0.4v-0.2v-0.1v-0.1c0-0.1,0,0.1,0,0
			c0-0.5,0.1-1,0.1-1.4v-1.3l-0.1-1.5c-0.1-1-0.1-1.9-0.2-2.9c-0.3-3.9-0.8-7.8-1.3-11.8l-1.5-11.8c-0.5-3.9-1-7.9-1.6-11.8
			c-0.3-2-0.6-3.9-1-5.9c-0.2-1-0.4-2-0.6-2.9l-0.2-0.7l-0.1-0.3l-0.1-0.4l-0.2-0.7l-0.2-0.9c-0.1-0.6-0.2-1.2-0.1-1.9
			c0-0.2,0.1-0.4,0.1-0.6s0.1-0.4,0.3-0.6c0.1-0.2,0.3-0.4,0.5-0.6s0.4-0.3,0.7-0.4c1-0.4,1.8-0.2,2.4-0.2c0.6,0.1,1.1,0.2,1.6,0.3
			c0.2,0,0.4,0.1,0.6,0.1l0.8,0.1l1.6,0.2l3.1,0.3l12.6,1.1c4.2,0.4,8.4,0.7,12.6,1l12.5,0.9c4.2,0.3,8.4,0.5,12.4,0.5
			c1,0,2,0,2.9-0.2c0.1,0,0.2,0,0.2-0.1h0.1l0,0l0.1-0.1c0.2-0.1,0.4-0.2,0.7-0.3c0.6-0.2,1.2-0.4,2.1-0.2c0.8,0.1,1.6,0.6,2.1,1.1
			s0.8,1,1.1,1.6c0.5,1,0.7,2,0.9,3l-0.2-0.5c0.2,0.2,0.4,0.5,0.4,0.7l0.2,0.5c0.1,0.3,0.2,0.6,0.3,0.9c0.1,0.6,0.3,1.2,0.4,1.8
			c0.2,1.2,0.4,2.4,0.6,3.6c0.3,2.4,0.6,4.7,0.9,7.1l1.5,14.2l1.6,14.2l0.5,3.5c0.2,1.2,0.3,2.4,0.6,3.5c0.1,0.3,0.2,0.6,0.3,0.9
			c0.1,0.3,0.1,0.6,0.1,0.9c-0.1,0.6-0.4,1.1-0.9,1.5C81.5,161.9,80.1,162.2,78.7,162.2z M78.7,162c1.3,0,2.7-0.3,3.6-1
			c0.5-0.4,0.8-0.9,0.9-1.4c0.1-0.6-0.1-1.1-0.4-1.7c-0.3-1.2-0.5-2.4-0.7-3.6l-0.5-3.6l-1.7-14.2c-0.6-4.7-1.2-9.5-1.8-14.2
			c-0.3-2.4-0.7-4.7-1.1-7.1c-0.2-1.2-0.4-2.4-0.7-3.5c-0.1-0.6-0.3-1.2-0.4-1.8c-0.2-0.6-0.3-1.2-0.7-1.7l0,0l0,0
			c-0.1-0.9-0.4-1.8-0.8-2.7c-0.2-0.4-0.5-0.9-0.9-1.2c-0.4-0.4-0.8-0.6-1.3-0.7s-1,0-1.4,0.2s-0.8,0.4-1.4,0.5
			c-1,0.2-2,0.2-3.1,0.3c-4.1,0.1-8.3-0.1-12.5-0.3c-8.4-0.4-16.8-1-25.1-1.6l-12.6-1c-2.1-0.2-4.2-0.3-6.3-0.6
			c-1-0.1-2.2-0.5-3-0.2c-0.4,0.2-0.6,0.5-0.7,1c0,0.5,0,0.9,0.1,1.4c1,3.9,1.6,7.9,2.2,11.8s1.1,7.9,1.5,11.8
			c0.9,7.9,1.8,15.7,2.3,23.6c0.1,1,0.1,2,0.2,2.9l0.1,1.5v1.5c0,0.5-0.1,1-0.1,1.5c-0.1,0.5-0.2,0.9-0.2,1.4s0.2,0.9,0.6,1.3
			c0.3,0.4,0.8,0.6,1.3,0.9c2,0.8,4.2,0.5,6.4,0.6H27L78.7,162z"/>
	</g>
	<rect x="11.3" y="119.4" fill="none" width="263.7" height="37.1"/>
	<text transform="matrix(1.0133 0 0 1 11.2671 148.3037)" fill="#003399" font-family="'ProximaSoft-Bold'" font-size="42.9217">PeppyPillows</text>
</g>
<g id="Logo_x2C__text_only">
	<rect x="22.8" y="-166" fill="none" width="240.7" height="141.6"/>
	<text transform="matrix(1 0 0 1 35.9635 -115.4254)" fill="#003399" font-family="'ProximaSoft-Bold'" font-size="75">Peppy</text>
	<text transform="matrix(1 0 0 1 22.9635 -25.4254)" fill="#003399" font-family="'ProximaSoft-Bold'" font-size="75">Pillows</text>
</g>
<g id="Logo">
	<g>
		<path fill="#335CAD" d="M373.7,162.2l-25.8,0.2c-4.3,0-8.6,0-12.9,0.1l-12.9,0.2l-6.5,0.1h-3.2c-1.2,0-2.3-0.1-3.6-0.6
			c-0.6-0.2-1.2-0.6-1.7-1.1s-0.8-1.2-0.9-1.9c-0.1-0.3,0-0.6,0-0.9c0-0.2,0.1-0.3,0.1-0.4v-0.2v-0.1v-0.1c0-0.1,0,0.1,0,0
			c0-0.5,0.1-1,0.1-1.4v-1.3l-0.1-1.5c-0.1-1-0.1-1.9-0.2-2.9c-0.3-3.9-0.8-7.8-1.3-11.8l-1.5-11.8c-0.5-3.9-1-7.9-1.6-11.8
			c-0.3-2-0.6-3.9-1-5.9c-0.2-1-0.4-2-0.6-2.9l-0.2-0.7l-0.1-0.3l-0.1-0.4l-0.2-0.7l-0.2-0.9c-0.1-0.6-0.2-1.2-0.1-1.9
			c0-0.2,0.1-0.4,0.1-0.6s0.1-0.4,0.3-0.6c0.1-0.2,0.3-0.4,0.5-0.6s0.4-0.3,0.7-0.4c1-0.4,1.8-0.2,2.4-0.2c0.6,0.1,1.1,0.2,1.6,0.3
			c0.2,0,0.4,0.1,0.6,0.1l0.8,0.1l1.6,0.2l3.1,0.3l12.6,1.1c4.2,0.4,8.4,0.7,12.6,1l12.5,0.9c4.2,0.3,8.4,0.5,12.4,0.5
			c1,0,2,0,2.9-0.2c0.1,0,0.2,0,0.2-0.1h0.1l0,0l0.1-0.1c0.2-0.1,0.4-0.2,0.7-0.3c0.6-0.2,1.2-0.4,2.1-0.2c0.8,0.1,1.6,0.6,2.1,1.1
			s0.8,1,1.1,1.6c0.5,1,0.7,2,0.9,3l-0.2-0.5c0.2,0.2,0.4,0.5,0.4,0.7l0.2,0.5c0.1,0.3,0.2,0.6,0.3,0.9c0.1,0.6,0.3,1.2,0.4,1.8
			c0.2,1.2,0.4,2.4,0.6,3.6c0.3,2.4,0.6,4.7,0.9,7.1l1.5,14.2l1.6,14.2l0.5,3.5c0.2,1.2,0.3,2.4,0.6,3.5c0.1,0.3,0.2,0.6,0.3,0.9
			c0.1,0.3,0.1,0.6,0.1,0.9c-0.1,0.6-0.4,1.1-0.9,1.5C376.5,161.9,375.1,162.2,373.7,162.2z M373.7,162c1.3,0,2.7-0.3,3.6-1
			c0.5-0.4,0.8-0.9,0.9-1.4c0.1-0.6-0.1-1.1-0.4-1.7c-0.3-1.2-0.5-2.4-0.7-3.6l-0.5-3.6l-1.7-14.2c-0.6-4.7-1.2-9.5-1.8-14.2
			c-0.3-2.4-0.7-4.7-1.1-7.1c-0.2-1.2-0.4-2.4-0.7-3.5c-0.1-0.6-0.3-1.2-0.4-1.8c-0.2-0.6-0.3-1.2-0.7-1.7l0,0l0,0
			c-0.1-0.9-0.4-1.8-0.8-2.7c-0.2-0.4-0.5-0.9-0.9-1.2c-0.4-0.4-0.8-0.6-1.3-0.7s-1,0-1.4,0.2s-0.8,0.4-1.4,0.5
			c-1,0.2-2,0.2-3.1,0.3c-4.1,0.1-8.3-0.1-12.5-0.3c-8.4-0.4-16.8-1-25.1-1.6l-12.6-1c-2.1-0.2-4.2-0.3-6.3-0.6
			c-1-0.1-2.2-0.5-3-0.2c-0.4,0.2-0.6,0.5-0.7,1c0,0.5,0,0.9,0.1,1.4c1,3.9,1.6,7.9,2.2,11.8s1.1,7.9,1.5,11.8
			c0.9,7.9,1.8,15.7,2.3,23.6c0.1,1,0.1,2,0.2,2.9l0.1,1.5v1.5c0,0.5-0.1,1-0.1,1.5c-0.1,0.5-0.2,0.9-0.2,1.4s0.2,0.9,0.6,1.3
			c0.3,0.4,0.8,0.6,1.3,0.9c2,0.8,4.2,0.5,6.4,0.6h6.5L373.7,162z"/>
	</g>
	<rect x="306.3" y="119.4" fill="none" width="263.7" height="37.1"/>
	<text transform="matrix(1.0133 0 0 1 306.2671 148.3037)" fill="#003366" font-family="'ProximaSoft-Bold'" font-size="42.9217">PeppyPillows</text>
</g>
</svg>
