<?xml version="1.0" encoding="utf-8"?>
<!-- Generator: Adobe Illustrator 18.0.0, SVG Export Plug-In . SVG Version: 6.00 Build 0)  -->
<!DOCTYPE svg PUBLIC "-//W3C//DTD SVG 1.1//EN" "http://www.w3.org/Graphics/SVG/1.1/DTD/svg11.dtd">
<svg version="1.1" id="Layer_1" xmlns="http://www.w3.org/2000/svg" xmlns:xlink="http://www.w3.org/1999/xlink" x="0px" y="0px"
	 viewBox="0 0 275 69.5" enable-background="new 0 0 275 69.5" xml:space="preserve">
<g display="none">
	<path display="inline" fill="#FEFEFE" d="M104.6-29c-34.3,0-68.6,0-103,0C1.2-29,1-29.1,1-29.5c0-18.3,0-36.6,0-54.9
		C1-84.9,1.2-85,1.6-85c34.1,0,68.3,0,102.4,0c0.5,0,0.6,0.1,0.6,0.6C104.6-66,104.6-47.5,104.6-29z"/>
	<path display="inline" fill="#CCCCCC" d="M100.1-45.5c-0.2,1.1-0.5,2.2-1.1,3.2c-0.9,1.4-2,2.7-3.4,3.7c-2,1.5-4.3,2.4-6.7,2.8
		c-2.7,0.4-5.4,0.4-8-0.5c-0.2-0.1-0.5-0.2-0.7-0.2c-0.6-0.2-1.2,0-1.7,0.3c-1.6,1.1-3.3,1.9-5.1,2.4c-1.6,0.5-3.3,0.9-5,1.1
		c-1.7,0.3-3.4,0.1-5.1,0.2c-3.8,0.1-7.5-0.8-11-2.4c-0.8-0.3-1.4-0.1-2,0.3c-2,1.5-4.2,2.2-6.6,2.7c-1.8,0.4-3.7,0.5-5.5,0.3
		c-2-0.2-4-0.7-5.9-1.5c-2.2-1-4.1-2.2-5.6-4.1c-0.4-0.4-0.8-0.4-1.2-0.2c-1.1,0.3-2.3,0.6-3.5,0.8c-1.8,0.3-3.5,0.1-5.2-0.2
		c-2.9-0.6-5.4-2.1-7.6-4C8-42,7.1-43.4,6.4-44.9c-0.9-2-1.2-4.1-1.1-6.2c0.1-1.6,0.6-3.2,1.4-4.6c0.2,0.2,0.2,0.4,0.2,0.7
		c-0.1,0.7-0.1,1.3,0,2c0,0.2-0.1,0.5,0,0.7c0,0.2,0.2,0.4,0.2,0.6C7-51.7,7-51.6,7.1-51.4c0.4,1.1,0.8,2.1,1.3,3.2
		c0,0.6,0.3,1,0.7,1.3c0.1,0.1,0.3,0.2,0.3,0.3c-0.1,0.3,0.1,0.4,0.3,0.5c0.5,0.5,1,0.9,1.3,1.5c0.3,0.4,0.7,0.7,1.2,0.9
		c0.9,0.4,1.7,0.9,2.6,1.4c0.4,0.3,0.9,0.6,1.5,0.5c0.9,0.2,1.9,0.5,2.8,0.6c1.6,0.3,3.3,0.3,4.9,0c0.9-0.2,1.7-0.3,2.5-0.6
		c0.4-0.1,0.8-0.3,1.2-0.1c0.2,0.5,0.6,0.8,1,1.1c0.3,0.2,0.6,0.5,0.8,0.8c0.1,0.3,0.4,0.4,0.6,0.4c0.3,0.1,0.5,0.2,0.7,0.4
		c2.3,1.4,4.7,2.5,7.4,2.9c0.3,0,0.5,0.1,0.7,0.2c0.1,0.3,0.4,0,0.6,0.1c0.3,0,0.5,0,0.8-0.1c0.9,0,1.8,0.1,2.6-0.1
		c0.2,0,0.4,0,0.7,0c0.2,0.1,0.3,0.2,0.6,0.2c-0.1-0.1-0.3,0-0.4-0.1c0-0.1,0.1-0.2,0.3-0.2c1.4-0.1,2.7-0.6,4-0.9
		c0.5,0,1-0.2,1.4-0.6c1-0.6,2.1-1.2,3.1-1.8c0.4-0.2,0.8-0.2,1.2,0c2.3,1.1,4.8,1.8,7.4,2.2c0.3,0,0.6,0,0.8,0.3
		c0,0.1,0,0.2-0.1,0.1c0,0,0.1,0,0.1,0c0.2-0.1,0.3-0.1,0.5-0.2c0.2,0,0.5-0.1,0.7,0.2c0,0.1-0.1,0.1-0.2,0.1c0,0,0.1,0,0.1,0
		c0.2-0.1,0.5-0.1,0.8-0.1c1.1,0,2.3,0,3.4,0c0.2,0,0.5,0,0.7-0.1c0.4-0.2,0.8-0.2,1.2-0.1c0.2,0.1,0.5,0.1,0.7,0
		c0.4-0.2,0.8-0.2,1.2-0.2c1.4-0.2,2.8-0.7,4.1-1c0.3,0.1,0.6-0.1,0.9-0.1c0-0.1-0.1-0.1-0.1-0.2c0.5-0.4,1.1-0.6,1.7-0.8
		c0.9-0.4,1.7-1,2.6-1.4c0.5-0.3,1.1-0.1,1.7-0.1c1.1,0.2,2.2,0.5,3.2,0.7c0.1,0,0.3,0.1,0.3,0.2c0,0.1-0.1,0.1-0.1,0.1
		c0.2,0,0.5-0.1,0.8-0.1c0.8,0,1.6,0,2.4,0c0.2,0,0.4,0,0.5,0.1c0.1,0,0.1,0,0.2,0c-0.1,0-0.2,0-0.2-0.1c0-0.2,0.2-0.2,0.4-0.3
		c2.4-0.3,4.6-1.1,6.7-2.3c0.1,0,0.1,0,0.2-0.1c0.2,0,0.4,0,0.6-0.2c0.3-0.3,0.8-0.5,0.9-1c0.5-0.7,1.2-1.2,1.7-1.9
		C99.8-45.5,99.9-45.6,100.1-45.5z"/>
	<path display="inline" fill="#E6E6E6" d="M14.8-42.1c-0.5-0.5-1.1-0.6-1.6-0.9c-0.3-0.2-0.6-0.4-0.9-0.5c-0.4-0.3-0.8-0.6-1.2-1
		c-0.4-0.6-0.9-1-1.3-1.6c-0.2-0.1-0.3-0.3-0.3-0.5c-0.1-0.1-0.2-0.2-0.3-0.2c-0.2-0.5-0.7-0.8-0.7-1.3c-0.6-1-1-2.2-1.3-3.3
		c-0.1-0.1-0.1-0.2,0-0.4c0-0.2-0.3-0.3-0.2-0.6c-0.1-0.2-0.1-0.4,0-0.6c-0.3-0.9,0-1.9,0-2.8c0.5-0.6,0.5-1.4,0.6-2.2
		c0.1-0.1,0.1-0.3,0.2-0.4c0.5-1.6,1.4-3.1,2.5-4.3c0.1-0.1,0.1-0.2,0.1-0.3c0.1-0.2,0.2-0.2,0.4-0.4c1.1-1.1,2.3-2.1,3.8-2.8
		c1.3-0.6,2.6-1.1,4.1-1.4c1.7-0.3,2.1-0.8,2.3-2.4c0.1-0.1,0.1-0.3,0.2-0.4c0.5-1.6,1.4-3.1,2.3-4.5c0.6-0.9,1.3-1.6,2-2.4
		c0.9-0.9,1.9-1.7,2.9-2.4c1.5-1,3.2-1.8,4.9-2.4c1.6-0.6,3.3-0.9,5-1.2c1.6-0.4,3.2-0.3,4.8-0.1c1.8,0.2,3.6,0.5,5.3,1.1
		c1.2,0.4,2.4,0.9,3.6,1.5c1.3,0.7,2.5,1.5,3.6,2.4c0.7,0.6,1.3,1.3,2,1.8c0.1,0.2,0.2,0.2,0.4,0.4c0.6,0.8,1.1,1.6,1.7,2.4
		c0,0.1,0.1,0.1,0.2,0.2c0.7,1.2,0.7,1.2,2.1,0.8c2.4-0.6,4.8-0.8,7.2-0.6c2.1,0.1,4.1,0.6,6,1.4c2,0.8,3.9,1.9,5.5,3.4
		c1.1,1,2.1,2.1,2.8,3.4c0.4,0.8,0.8,1.5,1.1,2.3c0.1,0.5,0.5,0.6,0.9,0.5c2.5-0.4,4.9-0.2,7.3,0.5c1.4,0.4,2.8,1.1,4.1,1.9
		c1.1,0.7,2,1.5,2.8,2.4c0.6,0.7,1,1.4,1.5,2.2c0.5,0.9,0.8,1.9,1,2.8c0.3,1,0.4,2.2-0.2,3.3c-0.3,0.6-0.3,1.3-0.7,1.9
		c-0.4,0.6-0.6,1.2-0.9,1.8c-0.5,0.2-0.6,0.7-1,1c-0.4,0.3-0.7,0.7-1,1c-0.2,0.4-0.7,0.5-0.9,0.9c-0.2,0.1-0.3,0.3-0.5,0.2
		c-1.9,1.2-4,1.9-6.2,2.4c-0.4,0.1-0.8-0.1-1.2,0.2c-0.1,0.1-0.3,0-0.4,0.1c-0.9,0-1.7,0-2.6,0c-0.2,0-0.4,0.1-0.6-0.1
		c-0.7-0.2-1.5-0.3-2.2-0.5c-0.5-0.1-1-0.2-1.4-0.4c-0.1,0-0.1,0-0.2,0c-0.5-0.3-1-0.2-1.4,0.1C79-39.6,77.5-39,76-38.3
		c-0.2,0.1-0.4,0.3-0.7,0.2c-1.5,0.5-2.9,0.9-4.5,1.2c-0.3,0.1-0.7-0.1-1,0.2c-0.2,0.1-0.4,0.1-0.6,0c-0.4,0-0.8-0.1-1.2,0.1
		c-1.1,0.1-2.3,0-3.4,0.1c-0.3,0-0.6,0-0.9,0c-0.2,0-0.5,0.1-0.7-0.1c-0.2-0.2-0.5-0.1-0.7-0.1c-0.1,0.1-0.2,0.1-0.4,0
		c-1.2-0.2-2.4-0.5-3.6-0.7c-1.6-0.4-3.1-0.9-4.6-1.6c-0.5-0.2-0.9-0.3-1.4,0.1c-0.8,0.6-1.6,1.2-2.6,1.5c-0.1,0-0.1,0.1-0.2,0.2
		c-0.4,0.2-0.8,0.4-1.3,0.5c-1.4,0.4-2.7,0.9-4.2,1c-0.1,0-0.1,0.1-0.2,0.1c0,0-0.1,0.1-0.1,0c-0.9,0-1.9,0.2-2.8,0.1
		c-0.2,0-0.5,0-0.7-0.1c-0.2,0.1-0.5,0-0.7,0c-0.2,0-0.3,0.1-0.5-0.1c-0.6-0.3-1.2-0.3-1.9-0.4c-2.4-0.5-4.5-1.5-6.6-2.8
		c-0.2-0.1-0.3-0.2-0.5-0.2c-0.2-0.1-0.4-0.3-0.6-0.5c-0.1-0.4-0.5-0.6-0.7-0.8c-0.3-0.3-0.6-0.6-0.8-1c-0.4-0.3-0.8,0-1.2,0.1
		c-1.7,0.6-3.5,0.9-5.4,0.9c-1.7,0-3.4-0.4-5.1-1C15.7-41.6,15.2-41.9,14.8-42.1z"/>
	<path display="inline" fill="#DDF1FB" d="M7.6-58.3c0,0.2,0,0.4-0.2,0.4C7.4-58.1,7.4-58.3,7.6-58.3z"/>
	<path display="inline" fill="#DEF2FB" d="M10.6-63.3c0,0.2-0.2,0.3-0.4,0.4C10.3-63.2,10.4-63.3,10.6-63.3z"/>
	<path display="inline" fill="#DEF2FB" d="M21.1-70.2c0,0.2,0,0.4-0.2,0.4C20.8-70,20.8-70.2,21.1-70.2z"/>
	<path display="inline" fill="#E0F2FB" d="M57.9-76c-0.2,0-0.4-0.1-0.4-0.4C57.7-76.3,57.9-76.3,57.9-76z"/>
	<path display="inline" fill="#DCEFF9" d="M63.6-36.6c1.5,0,2.9,0,4.4,0c-0.2,0.2-0.4,0.1-0.6,0.1c-1.2,0-2.5,0-3.7,0
		C63.6-36.5,63.5-36.6,63.6-36.6C63.6-36.6,63.6-36.6,63.6-36.6z"/>
	<path display="inline" fill="#DCEFF9" d="M86.1-39.8c0.9,0,1.8,0,2.7,0c0,0,0.1,0.1,0,0.1c0,0,0,0,0,0c-0.9,0-1.8,0-2.7,0
		C86.1-39.7,86.1-39.7,86.1-39.8C86.1-39.8,86.1-39.8,86.1-39.8z"/>
	<path display="inline" fill="#D5ECF9" d="M8.3-48.2c0.2,0.5,0.7,0.8,0.7,1.3C8.7-47.2,8.2-47.5,8.3-48.2z"/>
	<path display="inline" fill="#D8EDF9" d="M11-44.5c0.5,0.2,0.9,0.6,1.2,1C11.7-43.7,11.3-44.1,11-44.5z"/>
	<path display="inline" fill="#D7EDF9" d="M80.3-40.5c0.5-0.5,1-0.4,1.6-0.1c0,0-0.1,0.1-0.1,0.1C81.3-40.8,80.8-40.7,80.3-40.5z"/>
	<path display="inline" fill="#D5ECF9" d="M27.9-41.6c0.3,0.3,0.7,0.6,0.8,1c-0.5-0.1-0.6-0.7-1-0.9c0,0,0,0,0,0
		C27.8-41.6,27.8-41.6,27.9-41.6z"/>
	<path display="inline" fill="#D7EDF9" d="M14.8-42.1c0.5,0.1,0.9,0.4,1.5,0.5C15.6-41.5,15.2-41.8,14.8-42.1z"/>
	<path display="inline" fill="#D8EDF9" d="M97-42.6c0.2-0.4,0.7-0.6,1-0.9c-0.1,0.5-0.6,0.7-1,1C97-42.5,97-42.5,97-42.6
		C97-42.6,97-42.6,97-42.6z"/>
	<path display="inline" fill="#D7EDF9" d="M48.2-36.9c0.4-0.2,0.9-0.3,1.3-0.5C49.2-37.1,48.7-36.8,48.2-36.9z"/>
	<path display="inline" fill="#D6EDF9" d="M75.2-38.1c0.2-0.1,0.5-0.2,0.7-0.2c0,0,0.1,0,0.1,0C75.8-38.2,75.6-37.9,75.2-38.1z"/>
	<path display="inline" fill="#E4E7E8" d="M86.1-39.8c0,0,0,0.1,0,0.1c-0.3,0-0.6,0-1,0c0.1-0.2,0.3-0.1,0.4-0.1
		C85.7-39.8,85.9-39.8,86.1-39.8z"/>
	<path display="inline" fill="#D8EEF9" d="M29.4-39.8c0.3,0,0.5,0.3,0.6,0.5C29.8-39.4,29.5-39.5,29.4-39.8z"/>
	<path display="inline" fill="#D7EDF9" d="M9.4-46.6c0.1,0.2,0.2,0.3,0.3,0.5C9.3-46.2,9.2-46.4,9.4-46.6z"/>
	<path display="inline" fill="#E5E7E7" d="M63.6-36.6c0,0,0,0.1,0,0.1c-0.3,0-0.6,0-1,0c0.1-0.2,0.3-0.1,0.4-0.1
		C63.2-36.6,63.4-36.6,63.6-36.6z"/>
	<path display="inline" fill="#E8EAEC" d="M88.8-39.7c0,0,0-0.1,0-0.1c0.1,0,0.2,0,0.4,0c0.1,0,0.2,0,0.3,0c0,0,0,0.1,0,0.1
		C89.3-39.7,89-39.7,88.8-39.7z"/>
	<path display="inline" fill="#D7DDE1" d="M97-42.6c0,0,0,0.1,0,0.1c-0.1,0.1-0.3,0.3-0.5,0.1C96.7-42.4,96.8-42.6,97-42.6z"/>
	<path display="inline" fill="#DAEEF9" d="M7-51.8c0,0.1,0,0.2,0,0.4c-0.1,0-0.2,0-0.2-0.2C6.8-51.8,6.9-51.8,7-51.8z"/>
	<path display="inline" fill="#D3D5D7" d="M39.5-35.8c0.2,0,0.5,0,0.7,0c-0.2,0.2-0.5,0.1-0.7,0.1C39.4-35.7,39.4-35.7,39.5-35.8
		C39.5-35.8,39.5-35.8,39.5-35.8z"/>
	<path display="inline" fill="#DBEFF9" d="M6.8-53c0,0.2,0,0.4,0,0.6C6.6-52.6,6.6-52.8,6.8-53z"/>
	<path display="inline" fill="#E8EAEA" d="M61.9-36.8c0.1,0,0.2,0,0.4,0c-0.1,0.2-0.3,0.1-0.4,0.1c-0.1,0-0.1,0-0.1-0.1
		C61.8-36.8,61.9-36.8,61.9-36.8z"/>
	<path display="inline" fill="#E4E5E6" d="M69.2-36.8c0.2,0,0.4,0,0.6,0C69.6-36.6,69.4-36.6,69.2-36.8z"/>
	<path display="inline" fill="#E5E5E5" d="M39.5-35.8c0,0,0,0.1,0,0.1c-0.2-0.1-0.4,0.2-0.5-0.1C39.2-35.8,39.3-35.8,39.5-35.8z"/>
	<path display="inline" fill="#E5E8EA" d="M43.7-35.8c0,0,0.1,0,0.1,0c0.1,0,0.2,0,0.3,0C44-35.7,43.9-35.6,43.7-35.8z"/>
	<path display="inline" fill="#FDFDFD" d="M8.2-56.3c0.2-1.7,0.9-3.1,1.8-4.5c0.9-1.3,1.9-2.5,3.2-3.4c2.2-1.6,4.6-2.4,7.3-2.6
		c0.5,0,0.8-0.3,0.9-0.8c0.6-2.5,1.5-5,3.1-7.1c1.8-2.4,4.2-4.1,6.9-5.4c1.9-0.9,3.8-1.5,5.9-1.9c2.2-0.4,4.4-0.4,6.5-0.1
		c2.2,0.3,4.4,0.9,6.4,1.8c1.7,0.8,3.3,1.8,4.8,3.1c1.6,1.5,2.9,3.2,4,5c0.1,0.1,0.1,0.3,0.2,0.4c0.2,0.5,0.6,0.6,1,0.5
		c2.7-1,5.5-1.2,8.3-1c2.3,0.1,4.5,0.7,6.6,1.6c1.7,0.8,3.3,1.8,4.6,3.1c1.2,1.1,2.2,2.4,2.8,3.9c0.2,0.6,0.5,1.2,0.6,1.8
		c0.1,0.4,0.4,0.6,0.8,0.6c0.8-0.1,1.6-0.2,2.4-0.2c3.2-0.1,6.3,0.5,9.1,2.3c1.4,0.9,2.6,2,3.5,3.5c0.7,1.1,1.2,2.3,1.3,3.6
		c0.2,0.6,0.2,1.2,0,1.8c-0.2,2-1.1,3.7-2.4,5.2c-1.4,1.5-3,2.6-5,3.3c-1.3,0.5-2.7,0.7-4.2,0.9c-2,0.2-3.9,0-5.9-0.5
		c-0.4-0.1-0.9-0.2-1.3-0.5c-0.7-0.4-1.4-0.3-2,0.3c-1.8,1.4-3.9,2.2-6,2.9c-3.2,0.9-6.4,1.2-9.7,1.1c-3.6-0.2-7.1-1-10.3-2.7
		c-0.9-0.5-1.6,0-2.2,0.5c-2,1.5-4.3,2.3-6.7,2.8c-3,0.5-6,0.4-8.9-0.6c-2-0.7-3.8-1.6-5.4-3c-0.7-0.6-1.3-1.3-1.8-2
		c-0.3-0.4-0.7-0.5-1.2-0.3c-2.3,1-4.8,1.4-7.3,1.1c-2.5-0.3-4.9-1.1-7-2.6c-1.7-1.2-3-2.7-4-4.5c-0.6-1.1-1.1-2.2-1-3.5
		C8-52.6,8.2-52.8,8-53c0-0.9,0-1.9,0-2.8C8.1-55.9,8.1-56.1,8.2-56.3z"/>
	<path display="inline" fill="#C0E6F8" d="M100.5-50.2c0-0.6,0-1.2,0-1.8c0.2,0,0.3,0.2,0.2,0.3C100.6-51.2,100.9-50.6,100.5-50.2z"
		/>
	<path display="inline" fill="#EBF5FB" d="M8-53c0.4,0.1,0.2,0.4,0.2,0.6C7.8-52.5,8-52.8,8-53z"/>
	<path display="inline" fill="#CCEAF8" d="M8.2-56.3c0,0.2,0.1,0.4-0.2,0.5C8-56,7.9-56.2,8.2-56.3z"/>
</g>
<g id="Favicon">
	<g>
		<path fill="#335CAD" d="M76.7,160.3l-25.8,0.2c-4.3,0-8.6,0-12.9,0.1l-12.9,0.2l-6.5,0.1l-3.2,0c-1.2,0-2.3-0.1-3.6-0.6
			c-0.6-0.2-1.2-0.6-1.7-1.1c-0.5-0.5-0.8-1.2-0.9-1.9c-0.1-0.3,0-0.6,0-0.9c0-0.2,0.1-0.3,0.1-0.4l0-0.2l0-0.1l0-0.1
			c0-0.1,0,0.1,0,0c0-0.5,0.1-1,0.1-1.4l0-1.3l-0.1-1.5c-0.1-1-0.1-1.9-0.2-2.9c-0.3-3.9-0.8-7.8-1.3-11.8l-1.5-11.8
			c-0.5-3.9-1-7.9-1.6-11.8c-0.3-2-0.6-3.9-1-5.9c-0.2-1-0.4-2-0.6-2.9L3,103.7l-0.1-0.3l-0.1-0.4l-0.2-0.7l-0.2-0.9
			c-0.1-0.6-0.2-1.2-0.1-1.9c0-0.2,0.1-0.4,0.1-0.6c0-0.2,0.1-0.4,0.3-0.6C2.9,98,3,97.8,3.3,97.6c0.2-0.2,0.4-0.3,0.7-0.4
			c1-0.4,1.8-0.2,2.4-0.2c0.6,0.1,1.1,0.2,1.6,0.3c0.2,0,0.4,0.1,0.6,0.1l0.8,0.1l1.6,0.2l3.1,0.3l12.6,1.1c4.2,0.4,8.4,0.7,12.6,1
			l12.5,0.9c4.2,0.3,8.4,0.5,12.4,0.5c1,0,2,0,2.9-0.2c0.1,0,0.2,0,0.2-0.1l0.1,0l0,0l0.1-0.1c0.2-0.1,0.4-0.2,0.7-0.3
			c0.6-0.2,1.2-0.4,2.1-0.2c0.8,0.1,1.6,0.6,2.1,1.1c0.5,0.5,0.8,1,1.1,1.6c0.5,1,0.7,2,0.9,3l-0.2-0.5c0.2,0.2,0.4,0.5,0.4,0.7
			l0.2,0.5c0.1,0.3,0.2,0.6,0.3,0.9c0.1,0.6,0.3,1.2,0.4,1.8c0.2,1.2,0.4,2.4,0.6,3.6c0.3,2.4,0.6,4.7,0.9,7.1l1.5,14.2l1.6,14.2
			l0.5,3.5c0.2,1.2,0.3,2.4,0.6,3.5c0.1,0.3,0.2,0.6,0.3,0.9c0.1,0.3,0.1,0.6,0.1,0.9c-0.1,0.6-0.4,1.1-0.9,1.5
			C79.5,160,78.1,160.3,76.7,160.3z M76.7,160.1c1.3,0,2.7-0.3,3.6-1c0.5-0.4,0.8-0.9,0.9-1.4c0.1-0.6-0.1-1.1-0.4-1.7
			c-0.3-1.2-0.5-2.4-0.7-3.6l-0.5-3.6l-1.7-14.2c-0.6-4.7-1.2-9.5-1.8-14.2c-0.3-2.4-0.7-4.7-1.1-7.1c-0.2-1.2-0.4-2.4-0.7-3.5
			c-0.1-0.6-0.3-1.2-0.4-1.8c-0.2-0.6-0.3-1.2-0.7-1.7l0,0l0,0c-0.1-0.9-0.4-1.8-0.8-2.7c-0.2-0.4-0.5-0.9-0.9-1.2
			c-0.4-0.4-0.8-0.6-1.3-0.7c-0.5-0.1-1,0-1.4,0.2c-0.4,0.2-0.8,0.4-1.4,0.5c-1,0.2-2,0.2-3.1,0.3c-4.1,0.1-8.3-0.1-12.5-0.3
			c-8.4-0.4-16.8-1-25.1-1.6l-12.6-1c-2.1-0.2-4.2-0.3-6.3-0.6c-1-0.1-2.2-0.5-3-0.2c-0.4,0.2-0.6,0.5-0.7,1c0,0.5,0,0.9,0.1,1.4
			c1,3.9,1.6,7.9,2.2,11.8C7,117,7.5,121,8,124.9c0.9,7.9,1.8,15.7,2.3,23.6c0.1,1,0.1,2,0.2,2.9l0.1,1.5l0,1.5c0,0.5-0.1,1-0.1,1.5
			c-0.1,0.5-0.2,0.9-0.2,1.4c0,0.5,0.2,0.9,0.6,1.3c0.3,0.4,0.8,0.6,1.3,0.9c2,0.8,4.2,0.5,6.4,0.6l6.5,0L76.7,160.1z"/>
	</g>
	<rect x="16" y="116.4" fill="none" width="55.7" height="31"/>
	<text transform="matrix(1.0133 0 0 1 16.0161 145.2887)" fill="#003399" font-family="'ProximaSoft-Bold'" font-size="42.9217">PP</text>
</g>
<g id="Logo">
	<g>
		<path fill="#335CAD" d="M76.7,67.3l-25.8,0.2c-4.3,0-8.6,0-12.9,0.1l-12.9,0.2l-6.5,0.1l-3.2,0c-1.2,0-2.3-0.1-3.6-0.6
			c-0.6-0.2-1.2-0.6-1.7-1.1c-0.5-0.5-0.8-1.2-0.9-1.9c-0.1-0.3,0-0.6,0-0.9c0-0.2,0.1-0.3,0.1-0.4l0-0.2l0-0.1l0-0.1
			c0-0.1,0,0.1,0,0c0-0.5,0.1-1,0.1-1.4l0-1.3l-0.1-1.5c-0.1-1-0.1-1.9-0.2-2.9c-0.3-3.9-0.8-7.8-1.3-11.8L6.3,31.9
			C5.8,28,5.3,24,4.7,20.1c-0.3-2-0.6-3.9-1-5.9c-0.2-1-0.4-2-0.6-2.9L3,10.7l-0.1-0.3L2.8,9.9L2.6,9.2L2.4,8.3
			C2.3,7.7,2.3,7.1,2.3,6.4c0-0.2,0.1-0.4,0.1-0.6c0-0.2,0.1-0.4,0.3-0.6C2.9,5,3,4.8,3.3,4.6c0.2-0.2,0.4-0.3,0.7-0.4
			c1-0.4,1.8-0.2,2.4-0.2C7,4.2,7.5,4.3,7.9,4.3c0.2,0,0.4,0.1,0.6,0.1l0.8,0.1l1.6,0.2L14.1,5l12.6,1.1c4.2,0.4,8.4,0.7,12.6,1
			L51.7,8c4.2,0.3,8.4,0.5,12.4,0.5c1,0,2,0,2.9-0.2c0.1,0,0.2,0,0.2-0.1l0.1,0l0,0l0.1-0.1c0.2-0.1,0.4-0.2,0.7-0.3
			c0.6-0.2,1.2-0.4,2.1-0.2c0.8,0.1,1.6,0.6,2.1,1.1c0.5,0.5,0.8,1,1.1,1.6c0.5,1,0.7,2,0.9,3L74,12.9c0.2,0.2,0.4,0.5,0.4,0.7
			l0.2,0.5c0.1,0.3,0.2,0.6,0.3,0.9c0.1,0.6,0.3,1.2,0.4,1.8c0.2,1.2,0.4,2.4,0.6,3.6c0.3,2.4,0.6,4.7,0.9,7.1l1.5,14.2L80,55.8
			l0.5,3.5c0.2,1.2,0.3,2.4,0.6,3.5c0.1,0.3,0.2,0.6,0.3,0.9c0.1,0.3,0.1,0.6,0.1,0.9c-0.1,0.6-0.4,1.1-0.9,1.5
			C79.5,67,78.1,67.3,76.7,67.3z M76.7,67.1c1.3,0,2.7-0.3,3.6-1c0.5-0.4,0.8-0.9,0.9-1.4c0.1-0.6-0.1-1.1-0.4-1.7
			c-0.3-1.2-0.5-2.4-0.7-3.6l-0.5-3.6l-1.7-14.2c-0.6-4.7-1.2-9.5-1.8-14.2c-0.3-2.4-0.7-4.7-1.1-7.1c-0.2-1.2-0.4-2.4-0.7-3.5
			c-0.1-0.6-0.3-1.2-0.4-1.8c-0.2-0.6-0.3-1.2-0.7-1.7l0,0l0,0c-0.1-0.9-0.4-1.8-0.8-2.7c-0.2-0.4-0.5-0.9-0.9-1.2
			c-0.4-0.4-0.8-0.6-1.3-0.7c-0.5-0.1-1,0-1.4,0.2C68.4,9,68,9.2,67.5,9.3c-1,0.2-2,0.2-3.1,0.3c-4.1,0.1-8.3-0.1-12.5-0.3
			c-8.4-0.4-16.8-1-25.1-1.6l-12.6-1C12.1,6.5,10,6.4,7.9,6.1c-1-0.1-2.2-0.5-3-0.2c-0.4,0.2-0.6,0.5-0.7,1c0,0.5,0,0.9,0.1,1.4
			c1,3.9,1.6,7.9,2.2,11.8C7,24,7.5,28,8,31.9c0.9,7.9,1.8,15.7,2.3,23.6c0.1,1,0.1,2,0.2,2.9l0.1,1.5l0,1.5c0,0.5-0.1,1-0.1,1.5
			c-0.1,0.5-0.2,0.9-0.2,1.4c0,0.5,0.2,0.9,0.6,1.3c0.3,0.4,0.8,0.6,1.3,0.9c2,0.8,4.2,0.5,6.4,0.6l6.5,0L76.7,67.1z"/>
	</g>
	<rect x="9.3" y="24.5" fill="none" width="263.7" height="37.1"/>
	<text transform="matrix(1.0133 0 0 1 9.267 53.4288)" fill="#003399" font-family="'ProximaSoft-Bold'" font-size="42.9217">PeppyPillows</text>
</g>
<g id="Social_media_profile">
	<g>
		<path fill="#335CAD" d="M76.7-118.2l-25.8,0.2c-4.3,0-8.6,0-12.9,0.1l-12.9,0.2l-6.5,0.1l-3.2,0c-1.2,0-2.3-0.1-3.6-0.6
			c-0.6-0.2-1.2-0.6-1.7-1.1c-0.5-0.5-0.8-1.2-0.9-1.9c-0.1-0.3,0-0.6,0-0.9c0-0.2,0.1-0.3,0.1-0.4l0-0.2l0-0.1l0-0.1
			c0-0.1,0,0.1,0,0c0-0.5,0.1-1,0.1-1.4l0-1.3l-0.1-1.5c-0.1-1-0.1-1.9-0.2-2.9c-0.3-3.9-0.8-7.8-1.3-11.8l-1.5-11.8
			c-0.5-3.9-1-7.9-1.6-11.8c-0.3-2-0.6-3.9-1-5.9c-0.2-1-0.4-2-0.6-2.9L3-174.8l-0.1-0.3l-0.1-0.4l-0.2-0.7l-0.2-0.9
			c-0.1-0.6-0.2-1.2-0.1-1.9c0-0.2,0.1-0.4,0.1-0.6c0-0.2,0.1-0.4,0.3-0.6c0.1-0.2,0.3-0.4,0.5-0.6c0.2-0.2,0.4-0.3,0.7-0.4
			c1-0.4,1.8-0.2,2.4-0.2c0.6,0.1,1.1,0.2,1.6,0.3c0.2,0,0.4,0.1,0.6,0.1l0.8,0.1l1.6,0.2l3.1,0.3l12.6,1.1c4.2,0.4,8.4,0.7,12.6,1
			l12.5,0.9c4.2,0.3,8.4,0.5,12.4,0.5c1,0,2,0,2.9-0.2c0.1,0,0.2,0,0.2-0.1l0.1,0l0,0l0.1-0.1c0.2-0.1,0.4-0.2,0.7-0.3
			c0.6-0.2,1.2-0.4,2.1-0.2c0.8,0.1,1.6,0.6,2.1,1.1c0.5,0.5,0.8,1,1.1,1.6c0.5,1,0.7,2,0.9,3l-0.2-0.5c0.2,0.2,0.4,0.5,0.4,0.7
			l0.2,0.5c0.1,0.3,0.2,0.6,0.3,0.9c0.1,0.6,0.3,1.2,0.4,1.8c0.2,1.2,0.4,2.4,0.6,3.6c0.3,2.4,0.6,4.7,0.9,7.1l1.5,14.2l1.6,14.2
			l0.5,3.5c0.2,1.2,0.3,2.4,0.6,3.5c0.1,0.3,0.2,0.6,0.3,0.9c0.1,0.3,0.1,0.6,0.1,0.9c-0.1,0.6-0.4,1.1-0.9,1.5
			C79.5-118.5,78.1-118.2,76.7-118.2z M76.7-118.4c1.3,0,2.7-0.3,3.6-1c0.5-0.4,0.8-0.9,0.9-1.4c0.1-0.6-0.1-1.1-0.4-1.7
			c-0.3-1.2-0.5-2.4-0.7-3.6l-0.5-3.6l-1.7-14.2c-0.6-4.7-1.2-9.5-1.8-14.2c-0.3-2.4-0.7-4.7-1.1-7.1c-0.2-1.2-0.4-2.4-0.7-3.5
			c-0.1-0.6-0.3-1.2-0.4-1.8c-0.2-0.6-0.3-1.2-0.7-1.7l0,0l0,0c-0.1-0.9-0.4-1.8-0.8-2.7c-0.2-0.4-0.5-0.9-0.9-1.2
			c-0.4-0.4-0.8-0.6-1.3-0.7c-0.5-0.1-1,0-1.4,0.2c-0.4,0.2-0.8,0.4-1.4,0.5c-1,0.2-2,0.2-3.1,0.3c-4.1,0.1-8.3-0.1-12.5-0.3
			c-8.4-0.4-16.8-1-25.1-1.6l-12.6-1c-2.1-0.2-4.2-0.3-6.3-0.6c-1-0.1-2.2-0.5-3-0.2c-0.4,0.2-0.6,0.5-0.7,1c0,0.5,0,0.9,0.1,1.4
			c1,3.9,1.6,7.9,2.2,11.8c0.6,3.9,1.1,7.9,1.5,11.8c0.9,7.9,1.8,15.7,2.3,23.6c0.1,1,0.1,2,0.2,2.9l0.1,1.5l0,1.5
			c0,0.5-0.1,1-0.1,1.5c-0.1,0.5-0.2,0.9-0.2,1.4c0,0.5,0.2,0.9,0.6,1.3c0.3,0.4,0.8,0.6,1.3,0.9c2,0.8,4.2,0.5,6.4,0.6l6.5,0
			L76.7-118.4z"/>
	</g>
	<rect x="9.3" y="-161" fill="none" width="263.7" height="37.1"/>
	<text transform="matrix(1.0133 0 0 1 9.267 -132.0712)" fill="#003399" font-family="'ProximaSoft-Bold'" font-size="42.9217">PeppyPillows</text>
</g>
<rect x="312.2" y="-227.5" fill="none" width="240.7" height="141.6"/>
<text transform="matrix(1 0 0 1 325.3635 -176.9254)"><tspan x="0" y="0" fill="#003399" font-family="'ProximaSoft-Bold'" font-size="75">Peppy</tspan><tspan x="-13" y="90" fill="#003399" font-family="'ProximaSoft-Bold'" font-size="75">Pillows</tspan></text>
</svg>
